<svg xmlns="http://www.w3.org/2000/svg" width="13.971" height="16.213"><g style="fill:none"><path d="M7.124 1.481a1 1 0 0 1 1.728 0L15.1 12.19a1 1 0 0 1-.864 1.5H1.741a1 1 0 0 1-.864-1.5Z" style="stroke:none" transform="rotate(89.03 6.845 6.963)"/><path d="M7.988 1.985 1.741 12.694h12.494L7.988 1.984m0-1a.99.99 0 0 1 .864.497l6.247 10.709a1 1 0 0 1-.864 1.504H1.741a1 1 0 0 1-.864-1.504L7.124 1.48a.99.99 0 0 1 .864-.495Z" style="fill:#fff;stroke:none" transform="rotate(89.03 6.845 6.963)"/></g></svg>